<svg xmlns="http://www.w3.org/2000/svg" viewBox="105 65 290 285" fill="none">
  <path fill="#8FE392" stroke="#8FE392" stroke-width="3" stroke-linejoin="round" d="M117.78 166c.73-72.55 66.25-106.98 132.04-89.36 72.99 18.55 136.15 86.79 132.26 164.77-.43 29.62-21.31 60.35-54.29 47.18-21.06-7-46.5-39.97-69.38-29.53-22 11.07-17.16 38.61.32 51.66 27.98 21.07 64.85 15.12 89.65-7.88 5.88-4.58 13.98 1.99 9.77 9-32.49 35.72-107.72 35.44-125.41-14.93-12.92-41.37 28.87-68.76 64.32-43.49 12.63 7.43 28.05 22.11 42.57 24.37 29.02 3.18 30.84-36.96 28.73-56.66-7.98-83.66-112.73-160.97-192.96-127.19-56.88 27.25-49.76 95.92-29 145.12 4.1 9.78 9.22 18.99 15.37 27.63 1.56 2.13 3.22 4.18 4.97 6.14.86.03 1.25-.4 1.16-1.31-.03-35.96.09-71.92.38-107.87 1.91-16.21 17.89-24.85 32.33-16.69 11.91 8.81 36.14 39.03 46.07 43.82 18.67 4.51 29.31-34.3 53.12-31.02 20.27 4.06 18.49 21.31 18.32 37.74.11 13.62.01 27.24-.31 40.85-1.96 7.11-10.62 6.92-12.56 0-.22-19.24-.4-38.48-.54-57.72-.5-6.58-7.21-9.43-12.67-6.05-13.67 10.21-26.66 34.61-46.33 30.1-14.4-1.72-38.74-36.05-51.31-45.46-6.14-4.44-13.33.1-13.06 7.45-.08 38.9-.25 77.79-.52 116.68-3.12 12.7-17.12 8.3-23.02.32-26.14-31.22-39.65-77.4-40.02-117.67Z"/>
</svg>
